<?xml version="1.0" encoding="UTF-8"?>
<svg width="58px" height="29px" viewBox="0 0 58 39" version="1.1" xmlns="http://www.w3.org/2000/svg" xmlns:xlink="http://www.w3.org/1999/xlink">
    <title>Group 7</title>
    <defs>
        <linearGradient x1="0%" y1="49.0270115%" x2="98.1667631%" y2="49.1160404%" id="linearGradient-1">
            <stop stop-color="#FFF800" offset="0%"></stop>
            <stop stop-color="#FFF200" offset="30.1662205%"></stop>
            <stop stop-color="#FFF100" offset="55.5652112%"></stop>
            <stop stop-color="#FFFFFF" offset="97.0607517%"></stop>
        </linearGradient>
    </defs>
    <g id="Page-1" stroke="none" stroke-width="1" fill="none" fill-rule="evenodd">
        <g id="Artboard" transform="translate(-11.000000, -144.000000)">
            <g id="Group-7" transform="translate(11.000000, 144.391613)">
                <g id="Group-4" transform="translate(0.000000, 7.608387)">
                    <path d="M5,22 L29.7113402,22 C29.8707626,22 30,22.1292374 30,22.2886598 L30,29.7113402 C30,29.8707626 29.8707626,30 29.7113402,30 L11.0618558,30 C7.71398528,30 5,27.2860147 5,23.9381442 L5,22 L5,22 Z" id="Rectangle" fill-opacity="0.65" fill="url(#linearGradient-1)"></path>
                    <g id="Group-2">
                        <g id="Group" transform="translate(2.000000, 1.865979)" stroke="#000000" stroke-linecap="round" stroke-width="3.020619">
                            <g id="Group-37">
                                <g id="Group-36" transform="translate(4.382022, 16.886598) scale(1, -1) translate(-4.382022, -16.886598) translate(0.000000, 7.505155)">
                                    <path d="M4.3077509,18.7628866 C4.3077509,9.98014786 4.3077509,4.69551055 4.3077509,2.90897467 C4.3077509,0.229170845 0,0.1431994 0,0" id="Line-13"></path>
                                    <path d="M8.76404494,18.7628866 C8.76404494,9.98014786 8.76404494,4.69551055 8.76404494,2.90897467 C8.76404494,0.229170845 4.45629404,0.1431994 4.45629404,0" id="Line-13" transform="translate(6.610169, 9.381443) scale(-1, 1) translate(-6.610169, -9.381443) "></path>
                                </g>
                                <g id="Group-36">
                                    <path d="M4.3077509,18.7628866 C4.3077509,9.98014786 4.3077509,4.69551055 4.3077509,2.90897467 C4.3077509,0.229170845 0,0.1431994 0,0" id="Line-13"></path>
                                    <path d="M8.76404494,18.7628866 C8.76404494,9.98014786 8.76404494,4.69551055 8.76404494,2.90897467 C8.76404494,0.229170845 4.45629404,0.1431994 4.45629404,0" id="Line-13" transform="translate(6.610169, 9.381443) scale(-1, 1) translate(-6.610169, -9.381443) "></path>
                                </g>
                            </g>
                        </g>
                        <rect id="Rectangle" x="0" y="0" width="42" height="30"></rect>
                    </g>
                </g>
                <g id="Group-6" transform="translate(38.500000, 19.091883) scale(-1, -1) rotate(-315.000000) translate(-38.500000, -19.091883) translate(26.000000, 4.591883)">
                    <polygon id="Rectangle" fill="#FFEF00" transform="translate(12.605313, 4.966742) scale(-1, 1) translate(-12.605313, -4.966742) " points="9.02777778 4.51722527e-12 16.1828478 3.57797789 16.1828478 9.93348342 9.23840337 9.93348342"></polygon>
                    <path d="M12.5,7.81498158 L16.0111488,7.91956364 C16.4481607,7.84984226 16.8981481,8.52114886 17.3611111,9.93348342 C18.0555556,11.345818 18.05794,13.0576688 19.4444444,14.8766544 C19.4444444,14.8766544 19.4444444,14.8766544 19.4444444,14.8766544 C20.3276208,16.0353128 20.1042985,17.6905469 18.94564,18.5737233 C18.4861176,18.9239899 17.9243032,19.1136953 17.3465078,19.1136581 L8.51244566,19.1136581 C6.85522418,19.1136365 5.51178074,17.7701931 5.51178074,16.1129716 C5.51178074,15.4603653 5.72453806,14.8255493 6.11780421,14.3047453 C6.11780421,14.3047453 6.11780421,14.3047453 6.11780421,14.3047453 C7.34211437,12.6833864 7.11267102,10.6469513 7.63888889,9.93348342 C8.09191869,9.31924695 8.56081484,8.66119622 9.04557731,7.95933123 L12.5,7.81498158 Z" id="Triangle" fill="#1E70B8"></path>
                    <path d="M6.19396451,14.8766544 L18.8060355,14.8766544 C19.5525075,14.8766544 20.1676865,15.4623282 20.2043462,16.2078995 L20.7611147,27.5312451 C20.799087,28.3035108 20.2038246,28.9603384 19.4315589,28.9983107 C19.4086579,28.9994367 19.3857327,29 19.362804,29 L5.63719598,29 C4.86399733,29 4.23719598,28.3731986 4.23719598,27.6 C4.23719598,27.5770713 4.23775926,27.5541461 4.2388853,27.5312451 L4.79565383,16.2078995 C4.83231355,15.4623282 5.44749249,14.8766544 6.19396451,14.8766544 Z" id="Rectangle" fill="#FFEF00"></path>
                </g>
            </g>
        </g>
    </g>
</svg>
