<?xml version="1.0" encoding="UTF-8"?>
<svg width="52px" height="110px" viewBox="0 0 52 110" version="1.1" xmlns="http://www.w3.org/2000/svg" xmlns:xlink="http://www.w3.org/1999/xlink">
    <title>Group 30</title>
    <defs>
        <circle id="path-1" cx="22" cy="22" r="22"></circle>
    </defs>
    <g id="Page-1" stroke="none" stroke-width="1" fill="none" fill-rule="evenodd">
        <g id="Group-30" transform="translate(2.000000, 1.000000)">
            <g id="highlight" transform="translate(5.000000, 0.000000)">
                <circle id="Oval" stroke="#FFEF00" stroke-width="2.6082" cx="22" cy="22" r="20.7111321"></circle>
                <g id="Clipped">
                    <mask id="mask-2" fill="white">
                        <use xlink:href="#path-1"></use>
                    </mask>
                    <g id="path-1"></g>
                    <g id="Group" mask="url(#mask-2)" fill-rule="nonzero">
                        <g transform="translate(5.804963, -32.977706)">
                            <path d="M13.2614715,17.8327093 L66.6982409,20.9240035 C69.5938,21.0915104 71.8905257,23.4273292 72.0091422,26.3253028 L72.3352631,34.2928973 C72.4626838,37.4059669 70.0423372,40.0329034 66.9292675,40.160324 C66.9164718,40.1608478 66.9036744,40.1613279 66.8908754,40.1617645 L14.9277306,41.9342846 C13.3236182,41.9890027 11.9788704,40.7329702 11.9241524,39.1288579 C11.9224631,39.0922993 11.9224631,39.0557204 11.9224631,39.0191408 L11.9957012,19.0229974 C11.9981212,18.3621008 12.5358455,17.8283 13.1967421,17.8307118 C13.2183326,17.8307118 13.2399169,17.8314624 13.2614715,17.8327093 Z" id="Rectangle" fill="#FFEF00" transform="translate(42.131268, 29.883359) rotate(-45.000000) translate(-42.131268, -29.883359) "></path>
                            <polygon id="Rectangle" fill="#FFEF00" transform="translate(6.310712, 64.662192) rotate(-46.000000) translate(-6.310712, -64.662192) " points="2.91088255 62.285996 4.73207149 61.7161533 9.36764741 61.9188517 9.71054115 67.6082315 4.76901248 66.9114591"></polygon>
                            <path d="M25.0192871,65.4983155 L25.0177006,66.7061554 L3.5181523,66.7343951 L3.76162406,65.2846702 C7.06590856,63.1062223 9.20309051,60.5669558 10.17317,57.6668709 C11.1432494,54.7667865 11.385875,53.9612424 10.9010469,55.2502394 C10.9823099,54.6864753 11.0638902,53.8811429 11.1457878,52.8342426 C11.1988075,52.1564907 10.6698413,49.6030586 11.6346352,48.4853847 C11.984962,48.0795457 12.9917596,47.8769166 14.6550279,47.8774961 C16.2912577,48.0718976 17.2974207,48.3524051 17.6735168,48.7190202 C18.1358127,49.1696619 18.2635966,50.1307597 18.153797,50.8924973 C17.910008,52.5837905 17.9884153,54.1941377 18.3890189,55.7235391 C18.9746582,57.9968635 19.5764099,59.6467846 20.1942739,60.6733025 C21.3441671,62.5837327 22.9525048,64.1920705 25.0192871,65.4983155 Z" id="Triangle" fill="#1E70B8" transform="translate(14.268720, 57.305946) rotate(-135.000000) translate(-14.268720, -57.305946) "></path>
                        </g>
                    </g>
                </g>
            </g>
            <line x1="0.5" y1="21.5" x2="0.5" y2="106.5" id="Line-9" stroke="#000000" stroke-width="5" stroke-linecap="square"></line>
        </g>
    </g>
</svg>